<?xml version="1.0" encoding="UTF-8" standalone="no"?>
<svg
   xmlns:dc="http://purl.org/dc/elements/1.1/"
   xmlns:cc="http://creativecommons.org/ns#"
   xmlns:rdf="http://www.w3.org/1999/02/22-rdf-syntax-ns#"
   xmlns:svg="http://www.w3.org/2000/svg"
   xmlns="http://www.w3.org/2000/svg"
   viewBox="0 0 394.18668 316.97333"
   height="316.97333"
   width="394.18668"
   xml:space="preserve"
   id="svg2"
   version="1.1"><metadata
     id="metadata8"><rdf:RDF><cc:Work
         rdf:about=""><dc:format>image/svg+xml</dc:format><dc:type
           rdf:resource="http://purl.org/dc/dcmitype/StillImage" /></cc:Work></rdf:RDF></metadata><defs
     id="defs6" /><g
     transform="matrix(1.3333333,0,0,-1.3333333,0,316.97333)"
     id="g10"><g
       transform="scale(0.1)"
       id="g12"><g
         transform="scale(10)"
         id="g14"><text
           id="text18"
           style="font-variant:normal;font-weight:normal;font-size:150px;font-family:NexaBold;-inkscape-font-specification:NexaBold;writing-mode:lr-tb;fill:#191e3c;fill-opacity:1;fill-rule:nonzero;stroke:none"
           transform="matrix(1,0,0,-1,0,110.233)"><tspan
             id="tspan16"
             y="0"
             x="0">Y</tspan></text>
</g><g
         transform="scale(10)"
         id="g20"><text
           id="text24"
           style="font-variant:normal;font-weight:normal;font-size:150px;font-family:NexaBold;-inkscape-font-specification:NexaBold;writing-mode:lr-tb;fill:#f14836;fill-opacity:1;fill-rule:nonzero;stroke:none"
           transform="matrix(1,0,0,-1,94.1996,110.233)"><tspan
             id="tspan22"
             y="0"
             x="0">O</tspan></text>
</g><g
         transform="scale(10)"
         id="g26"><text
           id="text30"
           style="font-variant:normal;font-weight:normal;font-size:150px;font-family:NexaBold;-inkscape-font-specification:NexaBold;writing-mode:lr-tb;fill:#191e3c;fill-opacity:1;fill-rule:nonzero;stroke:none"
           transform="matrix(1,0,0,-1,204.446,110.233)"><tspan
             id="tspan28"
             y="0"
             x="0">S</tspan></text>
</g><path
         id="path32"
         style="fill:#d0d1cf;fill-opacity:1;fill-rule:nonzero;stroke:none"
         d="m 443.223,791.039 c -229.2,0 -415.0003,-177.078 -415.0003,-395.519 v 0 C 28.2227,177.078 214.023,0 443.223,0 H 1488.22 V 791.039 H 443.223" /><path
         id="path34"
         style="fill:#111310;fill-opacity:1;fill-rule:nonzero;stroke:none"
         d="m 2533.22,791.039 h -1045 V 0 h 1045 c 229.2,0 415,177.078 415,395.52 v 0 c 0,218.441 -185.8,395.519 -415,395.519" /><path
         id="path36"
         style="fill:#e5e6e3;fill-opacity:1;fill-rule:nonzero;stroke:none"
         d="M 487.66,812.352 C 268.215,812.352 90.3125,642.801 90.3125,433.648 v -0.007 C 90.3125,224.488 268.215,54.9414 487.66,54.9414 H 1488.22 V 812.352 H 487.66" /><path
         id="path38"
         style="fill:#0f1727;fill-opacity:1;fill-rule:nonzero;stroke:none"
         d="M 2488.78,812.352 H 1488.22 V 54.9414 h 1000.56 c 219.45,0 397.35,169.5466 397.35,378.6996 v 0.007 c 0,209.153 -177.9,378.704 -397.35,378.704" /><path
         id="path40"
         style="fill:#ffffff;fill-opacity:1;fill-rule:nonzero;stroke:none"
         d="m 621.133,724.328 c -19.332,0 -35,-14.937 -35,-33.359 0,-18.418 15.668,-33.36 35,-33.36 h 864.997 v 66.719 H 621.133" /><path
         id="path42"
         style="fill:#2a3c97;fill-opacity:1;fill-rule:nonzero;stroke:none"
         d="m 2351.13,724.328 h -865 v -66.719 h 865 c 19.33,0 35,14.942 35,33.36 0,18.422 -15.67,33.359 -35,33.359" /><path
         id="path44"
         style="fill:#ffffff;fill-opacity:1;fill-rule:nonzero;stroke:none"
         d="m 144.363,516.98 c 0,0 0.317,111.969 112.649,160.391 0,0 73.468,13.809 27.496,-39.82 -45.969,-53.629 -66,-74.852 -80.809,-116.801 -14.797,-41.961 -51.273,-60.898 -59.336,-3.77" /><path
         id="path46"
         style="fill:#2a3c97;fill-opacity:1;fill-rule:nonzero;stroke:none"
         d="m 2849.64,516.98 c 0,0 -0.32,111.969 -112.66,160.391 0,0 -73.45,13.809 -27.49,-39.82 45.97,-53.629 66,-74.852 80.8,-116.801 14.81,-41.961 51.28,-60.898 59.35,-3.77" /><g
         transform="scale(10)"
         id="g48"><text
           id="text52"
           style="font-variant:normal;font-weight:normal;font-size:36px;font-family:NexaBold;-inkscape-font-specification:NexaBold;writing-mode:lr-tb;fill:#f14836;fill-opacity:1;fill-rule:nonzero;stroke:none"
           transform="matrix(1,0,0,-1,66.8512,23.8609)"><tspan
             id="tspan50"
             y="0"
             x="0 29.951702 56.015701">HEA</tspan></text>
</g><g
         transform="scale(10)"
         id="g54"><text
           id="text58"
           style="font-variant:normal;font-weight:normal;font-size:36px;font-family:NexaBold;-inkscape-font-specification:NexaBold;writing-mode:lr-tb;fill:#ffffff;fill-opacity:1;fill-rule:nonzero;stroke:none"
           transform="matrix(1,0,0,-1,154.186,23.8609)"><tspan
             id="tspan56"
             y="0"
             x="0 20.916 46.656181">LTH</tspan></text>
</g></g></g></svg>